<svg width="12" height="10" viewBox="0 0 12 10" fill="none" xmlns="http://www.w3.org/2000/svg">
<rect y="9" width="2" height="1" fill="black"/>
<rect x="5" y="9" width="4" height="1" fill="black"/>
<rect x="10" y="9" width="2" height="1" fill="black"/>
<rect x="11" y="7" width="1" height="1" fill="black"/>
<rect x="3" y="6" width="4" height="1" fill="black"/>
<rect x="9" y="8" width="1" height="1" fill="black"/>
<rect x="6" y="4" width="1" height="1" fill="black"/>
<rect x="10" y="4" width="1" height="1" fill="black"/>
<rect x="6" y="5" width="5" height="1" fill="black"/>
<rect x="1" y="7" width="6" height="1" fill="black"/>
<rect x="6" y="6" width="5" height="2" fill="black"/>
<rect x="2" y="8" width="7" height="1" fill="black"/>
<rect x="2" y="9" width="4" height="1" fill="black"/>
<rect x="3" y="3" width="1" height="1" fill="black"/>
<rect x="2" y="2" width="1" height="1" fill="black"/>
<rect x="1" y="3" width="1" height="1" fill="black"/>
<rect x="7" y="1" width="1" height="1" fill="black"/>
<rect x="6" width="1" height="1" fill="black"/>
<rect x="8" width="1" height="1" fill="black"/>
</svg>
