<svg width="23" height="15" viewBox="0 0 23 15" fill="none" xmlns="http://www.w3.org/2000/svg">
<rect x="7" y="13" width="1" height="2" fill="black"/>
<rect x="7" y="10" width="1" height="1" fill="black"/>
<rect x="8" y="11" width="3" height="1" fill="black"/>
<rect x="5" y="5" width="1" height="4" fill="black"/>
<rect x="6" y="7" width="1" height="1" fill="black"/>
<rect x="6" y="6" width="3" height="1" fill="black"/>
<rect x="8" y="7" width="1" height="2" fill="black"/>
<rect x="9" y="5" width="1" height="2" fill="black"/>
<rect y="14" width="2" height="1" fill="black"/>
<rect x="3" y="13" width="3" height="2" fill="black"/>
<rect x="4" y="10" width="3" height="3" fill="black"/>
<rect x="5" y="8" width="5" height="2" fill="black"/>
<rect width="1" height="2" transform="matrix(-1 0 0 1 16 13)" fill="black"/>
<rect width="1" height="1" transform="matrix(-1 0 0 1 16 10)" fill="black"/>
<rect width="3" height="1" transform="matrix(-1 0 0 1 15 11)" fill="black"/>
<rect width="1" height="4" transform="matrix(-1 0 0 1 18 5)" fill="black"/>
<rect width="1" height="1" transform="matrix(-1 0 0 1 17 7)" fill="black"/>
<rect width="3" height="1" transform="matrix(-1 0 0 1 17 6)" fill="black"/>
<rect width="1" height="2" transform="matrix(-1 0 0 1 15 7)" fill="black"/>
<rect width="1" height="2" transform="matrix(-1 0 0 1 14 5)" fill="black"/>
<rect width="2" height="1" transform="matrix(-1 0 0 1 23 14)" fill="black"/>
<rect width="3" height="2" transform="matrix(-1 0 0 1 20 13)" fill="black"/>
<rect width="3" height="3" transform="matrix(-1 0 0 1 19 10)" fill="black"/>
<rect width="5" height="2" transform="matrix(-1 0 0 1 18 8)" fill="black"/>
<rect x="9" y="1" width="1" height="1" fill="black"/>
<rect x="10" width="1" height="1" fill="black"/>
<rect x="11" y="1" width="1" height="1" fill="black"/>
<rect x="12" width="1" height="1" fill="black"/>
<rect x="13" y="1" width="1" height="1" fill="black"/>
<rect x="13" y="2" width="1" height="1" fill="black"/>
<rect x="9" y="2" width="1" height="1" fill="black"/>
<rect x="10" y="3" width="1" height="1" fill="black"/>
<rect x="11" y="4" width="1" height="1" fill="black"/>
<rect x="12" y="3" width="1" height="1" fill="black"/>
</svg>
